<svg xmlns="http://www.w3.org/2000/svg" xmlns:xlink="http://www.w3.org/1999/xlink" width="1000" height="238" viewBox="0 0 1000 238" role="img" aria-labelledby="title desc">
<title id="title">Connect with Shrawani Gawade on GitHub</title><desc id="desc">Connect with Shrawani Gawade on GitHub</desc>
<defs><style>.body{font-family:Trebuchet MS,Arial,sans-serif}.display{font-family:Georgia,Times New Roman,serif}.mono{font-family:Courier New,monospace}</style></defs>
<rect width="1000" height="238" rx="24" fill="#FFF9EF"/>
<text x="44" y="63" class="display" font-size="35" fill="#243F52" >Good things start with a conversation.</text><text x="44" y="113" class="body" font-size="23" fill="#596A70" >Explore my work, share an idea, or follow along on GitHub.</text><rect x="44" y="148" width="247" height="44" rx="22" fill="#243F52"/><text x="167.5" y="177" class="body" font-size="22" fill="#FFF9EF" text-anchor="middle">Find me on GitHub</text><g transform="translate(850 55) scale(0.8)" fill="none" stroke="#52755F" stroke-width="2.5" stroke-linecap="round">
    <path d="M0 150 Q12 80 64 0"/><path d="M20 92 Q-19 72 -8 47 Q28 53 20 92Z" fill="#52755F" opacity=".22"/>
    <path d="M32 63 Q70 66 79 34 Q47 26 32 63Z" fill="#52755F" opacity=".22"/>
    <path d="M46 33 Q26 4 42 -14 Q67 2 46 33Z" fill="#52755F" opacity=".22"/></g><g transform="translate(901 51) scale(0.65)" fill="none" stroke="#B65F76" stroke-width="1.5"><ellipse cx="0" cy="-16" rx="7" ry="13" transform="rotate(0)"/><ellipse cx="0" cy="-16" rx="7" ry="13" transform="rotate(60)"/><ellipse cx="0" cy="-16" rx="7" ry="13" transform="rotate(120)"/><ellipse cx="0" cy="-16" rx="7" ry="13" transform="rotate(180)"/><ellipse cx="0" cy="-16" rx="7" ry="13" transform="rotate(240)"/><ellipse cx="0" cy="-16" rx="7" ry="13" transform="rotate(300)"/><circle r="5" fill="#B98941" stroke="none"/></g>
</svg>
