<svg xmlns="http://www.w3.org/2000/svg" xmlns:xlink="http://www.w3.org/1999/xlink" width="600" height="486" viewBox="0 0 600 486" role="img" aria-labelledby="title desc">
<title id="title">Toolkit: TypeScript, JavaScript, Java, React, Next.js, Tailwind CSS, HTML, CSS, Node.js and Git</title><desc id="desc">Toolkit: TypeScript, JavaScript, Java, React, Next.js, Tailwind CSS, HTML, CSS, Node.js and Git</desc>
<defs><style>.body{font-family:Trebuchet MS,Arial,sans-serif}.display{font-family:Georgia,Times New Roman,serif}.mono{font-family:Courier New,monospace}</style></defs>
<rect width="600" height="486" rx="24" fill="#FFF9EF"/>
<text x="32" y="56" class="display" font-size="34" fill="#243F52" >Tools I build with</text><text x="32" y="112" class="body" font-size="23" fill="#596A70" >Languages</text><rect x="32" y="132" width="150" height="44" rx="22" fill="#DCEFF6"/><text x="107.0" y="161" class="body" font-size="22" fill="#243F52" text-anchor="middle">TypeScript</text><rect x="192" y="132" width="150" height="44" rx="22" fill="#DCEFF6"/><text x="267.0" y="161" class="body" font-size="22" fill="#243F52" text-anchor="middle">JavaScript</text><rect x="352" y="132" width="78" height="44" rx="22" fill="#DCEFF6"/><text x="391.0" y="161" class="body" font-size="22" fill="#243F52" text-anchor="middle">Java</text><text x="32" y="242" class="body" font-size="23" fill="#596A70" >Interface</text><rect x="32" y="262" width="90" height="44" rx="22" fill="#DCEFF6"/><text x="77.0" y="291" class="body" font-size="22" fill="#243F52" text-anchor="middle">React</text><rect x="132" y="262" width="114" height="44" rx="22" fill="#DCEFF6"/><text x="189.0" y="291" class="body" font-size="22" fill="#243F52" text-anchor="middle">Next.js</text><rect x="256" y="262" width="174" height="44" rx="22" fill="#DCEFF6"/><text x="343.0" y="291" class="body" font-size="22" fill="#243F52" text-anchor="middle">Tailwind CSS</text><text x="32" y="372" class="body" font-size="23" fill="#596A70" >Foundations</text><rect x="32" y="392" width="150" height="44" rx="22" fill="#DCEFF6"/><text x="107.0" y="421" class="body" font-size="22" fill="#243F52" text-anchor="middle">HTML &amp; CSS</text><rect x="192" y="392" width="114" height="44" rx="22" fill="#DCEFF6"/><text x="249.0" y="421" class="body" font-size="22" fill="#243F52" text-anchor="middle">Node.js</text><rect x="316" y="392" width="66" height="44" rx="22" fill="#DCEFF6"/><text x="349.0" y="421" class="body" font-size="22" fill="#243F52" text-anchor="middle">Git</text>
</svg>
